<mxfile host="app.diagrams.net" modified="2023-05-25T14:42:32.450Z" agent="Mozilla/5.0 (Macintosh; Intel Mac OS X 10_15_7) AppleWebKit/605.1.15 (KHTML, like Gecko) Version/16.4 Safari/605.1.15" version="21.3.4" etag="GaYrb2EBgNFGPBno2nMW" type="github">
  <diagram name="Page-1" id="4mF6zMxodfcFsqyh0v-n">
    <mxGraphModel>
      <root>
        <mxCell id="0" />
        <mxCell id="1" parent="0" />
      </root>
    </mxGraphModel>
  </diagram>
</mxfile>
